<svg width="35" height="33" viewBox="0 0 35 33" fill="none" xmlns="http://www.w3.org/2000/svg">
<path d="M24.0391 20.6758C23.1335 20.6758 22.3994 19.9092 22.3994 18.9636V9.02397C22.3992 4.03993 26.2684 -0.000304168 31.0416 -6.04177e-05H33.3607C34.2664 -6.04177e-05 35.0005 0.766533 35.0005 1.71212V2.33466C35.0005 3.28033 34.2664 4.04692 33.3607 4.04692H31.0416C28.409 4.04692 26.2751 6.27496 26.2753 9.02397V18.9636C26.2753 19.9092 25.5411 20.6758 24.6355 20.6758H24.0391Z" fill="#02E544"/>
<path d="M15.8727 18.9636V10.5069C15.8727 7.10802 13.3415 4.21316 10.0884 4.09242C6.67321 3.96567 3.86631 6.81893 3.86631 10.357V18.9636C3.86631 19.9093 3.13215 20.6758 2.2265 20.6758H1.63973C0.734153 20.6758 0 19.9093 0 18.9636V10.5607C0 4.78175 4.52911 -0.0574167 10.0624 0.0532457C15.4243 0.160496 19.739 4.73251 19.739 10.3569V18.9636C19.739 19.9093 19.0049 20.6758 18.0993 20.6758H17.5125C16.6069 20.6758 15.8727 19.9093 15.8727 18.9636Z" fill="white"/>
<path d="M34.0305 24.1203C34.7128 24.7422 34.7875 25.8277 34.1889 26.5375C31.3104 29.9505 26.4974 32.1877 21.0451 32.1877C15.7542 32.1877 11.0636 30.0819 8.15968 26.8387C7.50669 26.1094 7.61555 24.9445 8.37211 24.3338L8.376 24.3306C9.04479 23.7908 9.99036 23.8763 10.5735 24.5153C12.8659 27.0272 16.701 28.6744 21.0451 28.6744C25.5273 28.6744 29.4682 26.92 31.7304 24.2709C32.3285 23.5706 33.3536 23.5032 34.0305 24.1203Z" fill="#02E544"/>
</svg>
